<svg width="87" height="88" viewBox="0 0 87 88" fill="none" xmlns="http://www.w3.org/2000/svg">
<path d="M87 43.6765C87 67.7009 67.5244 87.1765 43.5 87.1765C19.4756 87.1765 0 67.7009 0 43.6765C0 19.6521 19.4756 0.176514 43.5 0.176514C67.5244 0.176514 87 19.6521 87 43.6765ZM13.6529 43.6765C13.6529 60.1606 27.0159 73.5237 43.5 73.5237C59.9841 73.5237 73.3471 60.1606 73.3471 43.6765C73.3471 27.1924 59.9841 13.8294 43.5 13.8294C27.0159 13.8294 13.6529 27.1924 13.6529 43.6765Z" fill="#F4EFF4"/>
<path d="M87 43.6765C87 67.7009 67.5244 87.1765 43.5 87.1765C19.4756 87.1765 0 67.7009 0 43.6765C0 19.6521 19.4756 0.176514 43.5 0.176514C67.5244 0.176514 87 19.6521 87 43.6765ZM13.6529 43.6765C13.6529 60.1606 27.0159 73.5237 43.5 73.5237C59.9841 73.5237 73.3471 60.1606 73.3471 43.6765C73.3471 27.1924 59.9841 13.8294 43.5 13.8294C27.0159 13.8294 13.6529 27.1924 13.6529 43.6765Z" fill="#C07F00"/>
<path d="M61 43.1765C61 53.1176 52.9411 61.1765 43 61.1765C33.0589 61.1765 25 53.1176 25 43.1765C25 33.2354 33.0589 25.1765 43 25.1765C52.9411 25.1765 61 33.2354 61 43.1765ZM30.6495 43.1765C30.6495 49.9975 36.179 55.5271 43 55.5271C49.821 55.5271 55.3505 49.9975 55.3505 43.1765C55.3505 36.3555 49.821 30.826 43 30.826C36.179 30.826 30.6495 36.3555 30.6495 43.1765Z" fill="#C07F00"/>
</svg>
